<svg width="40" height="18" viewBox="0 0 40 18" fill="none" xmlns="http://www.w3.org/2000/svg">
<path d="M37.0193 3.4334C36.8551 3.20826 36.5854 3.07317 36.304 3.07317H30.8513V0.844278C30.8513 0.382739 30.4527 0 29.9719 0H10.2134C9.73267 0 9.33398 0.382739 9.33398 0.844278V14.4878C9.33398 14.9493 9.73267 15.3321 10.2134 15.3321H12.6994C13.1567 16.863 14.6342 18 16.3696 18C18.1051 18 19.5826 16.8743 20.0399 15.3321H29.7843C30.2416 16.863 31.7191 18 33.4545 18C35.19 18 36.6675 16.8743 37.1248 15.3321H38.9423C39.4231 15.3321 39.8218 14.9493 39.8218 14.4878V7.54221C39.8218 7.3621 39.7632 7.19325 39.6576 7.05816L37.0193 3.4334ZM38.0746 7.78987H34.1346V4.77298H35.8584L38.0746 7.78987ZM11.0929 1.69981H29.0924V13.6548H20.122C19.7819 11.955 18.2341 10.6717 16.3696 10.6717C14.5052 10.6717 12.9456 11.955 12.6173 13.6548H11.0929V1.69981ZM16.3696 16.3114C15.2322 16.3114 14.3058 15.4221 14.3058 14.3302C14.3058 13.2383 15.2322 12.349 16.3696 12.349C17.5071 12.349 18.4334 13.2383 18.4334 14.3302C18.4334 15.4221 17.5071 16.3114 16.3696 16.3114ZM33.4663 16.3114C32.3288 16.3114 31.4025 15.4221 31.4025 14.3302C31.4025 13.2383 32.3288 12.349 33.4663 12.349C34.6037 12.349 35.53 13.2383 35.53 14.3302C35.53 15.4221 34.6037 16.3114 33.4663 16.3114ZM37.2186 13.6548C36.8785 11.955 35.3307 10.6717 33.4663 10.6717C32.4578 10.6717 31.5315 11.0544 30.8513 11.6735V4.77298H32.364V8.63415C32.364 9.09569 32.7627 9.47843 33.2435 9.47843H38.0863V13.6548H37.2186Z" fill="#4B5563"/>
<path d="M0.879456 1.69981H7.15291C7.63368 1.69981 8.03236 1.31707 8.03236 0.855531C8.03236 0.393993 7.63368 0.0112534 7.15291 0.0112534H0.879456C0.398687 0.0112534 0 0.393993 0 0.855531C0 1.31707 0.398687 1.69981 0.879456 1.69981Z" fill="#4B5563"/>
<path d="M7.15292 3.08443H2.32178C1.84101 3.08443 1.44232 3.46717 1.44232 3.92871C1.44232 4.39025 1.84101 4.77299 2.32178 4.77299H7.15292C7.63369 4.77299 8.03238 4.39025 8.03238 3.92871C8.03238 3.46717 7.64542 3.08443 7.15292 3.08443Z" fill="#4B5563"/>
<path d="M7.15291 6.15759H4.10413C3.62336 6.15759 3.22467 6.54032 3.22467 7.00186C3.22467 7.4634 3.62336 7.84614 4.10413 7.84614H7.15291C7.63368 7.84614 8.03236 7.4634 8.03236 7.00186C8.03236 6.54032 7.6454 6.15759 7.15291 6.15759Z" fill="#4B5563"/>
<path d="M7.15288 9.23077H6.09753C5.61677 9.23077 5.21808 9.61351 5.21808 10.075C5.21808 10.5366 5.61677 10.9193 6.09753 10.9193H7.15288C7.63365 10.9193 8.03234 10.5366 8.03234 10.075C8.03234 9.61351 7.64538 9.23077 7.15288 9.23077Z" fill="#4B5563"/>
</svg>
