<svg width="22" height="25" viewBox="0 0 22 25" fill="none" xmlns="http://www.w3.org/2000/svg">
<path d="M4.36574 18.5602C4.99318 18.5602 5.59491 18.8094 6.03857 19.2531C6.48224 19.6968 6.73148 20.2985 6.73148 20.9259C6.73148 21.5534 6.48224 22.1551 6.03857 22.5988C5.59491 23.0424 4.99318 23.2917 4.36574 23.2917C3.73831 23.2917 3.13657 23.0424 2.69291 22.5988C2.24925 22.1551 2 21.5534 2 20.9259C2 20.2985 2.24925 19.6968 2.69291 19.2531C3.13657 18.8094 3.73831 18.5602 4.36574 18.5602ZM4.36574 18.5602H17.3773M4.36574 18.5602V2H2M17.3773 18.5602C18.0048 18.5602 18.6065 18.8094 19.0502 19.2531C19.4938 19.6968 19.7431 20.2985 19.7431 20.9259C19.7431 21.5534 19.4938 22.1551 19.0502 22.5988C18.6065 23.0424 18.0048 23.2917 17.3773 23.2917C16.7499 23.2917 16.1482 23.0424 15.7045 22.5988C15.2608 22.1551 15.0116 21.5534 15.0116 20.9259C15.0116 20.2985 15.2608 19.6968 15.7045 19.2531C16.1482 18.8094 16.7499 18.5602 17.3773 18.5602ZM4.36574 4.36574L20.9259 5.54861L19.7431 13.8287H4.36574" stroke="#4B5563" stroke-width="2.02778" stroke-linecap="round" stroke-linejoin="round"/>
</svg>
