<svg width="25" height="22" viewBox="0 0 25 22" fill="none" xmlns="http://www.w3.org/2000/svg">
<path d="M21.5327 12.1531L12.6612 20.9394L3.78968 12.1531C3.20452 11.5836 2.7436 10.8992 2.43594 10.1429C2.12828 9.38663 1.98055 8.57482 2.00205 7.75862C2.02355 6.94242 2.21382 6.13951 2.56086 5.40045C2.90791 4.66139 3.40422 4.0022 4.01855 3.46438C4.63287 2.92656 5.3519 2.52176 6.13036 2.27548C6.90881 2.02919 7.72983 1.94676 8.54171 2.03337C9.35359 2.11997 10.1387 2.37374 10.8477 2.7787C11.5567 3.18366 12.1742 3.73102 12.6612 4.38633C13.1504 3.73578 13.7685 3.1932 14.477 2.79254C15.1855 2.39188 15.9691 2.14178 16.7787 2.05787C17.5883 1.97397 18.4065 2.05809 19.1821 2.30494C19.9577 2.5518 20.674 2.95609 21.2862 3.49251C21.8983 4.02893 22.3932 4.68594 22.7398 5.4224C23.0863 6.15887 23.2772 6.95894 23.3003 7.77255C23.3235 8.58616 23.1784 9.39578 22.8743 10.1508C22.5701 10.9057 22.1134 11.5898 21.5327 12.1602" stroke="#4B5563" stroke-width="2.02778" stroke-linecap="round" stroke-linejoin="round"/>
</svg>
