<svg width="25" height="24" viewBox="0 0 25 24" fill="none" xmlns="http://www.w3.org/2000/svg">
<path d="M7.91435 7.91436H17.3773M7.91435 12.6458H15.0116M19.7431 2C20.6842 2 21.5868 2.37387 22.2523 3.03936C22.9178 3.70486 23.2917 4.60746 23.2917 5.54861V15.0116C23.2917 15.9527 22.9178 16.8553 22.2523 17.5208C21.5868 18.1863 20.6842 18.5602 19.7431 18.5602H13.8287L7.91435 22.1088V18.5602H5.54861C4.60746 18.5602 3.70486 18.1863 3.03936 17.5208C2.37387 16.8553 2 15.9527 2 15.0116V5.54861C2 4.60746 2.37387 3.70486 3.03936 3.03936C3.70486 2.37387 4.60746 2 5.54861 2H19.7431Z" stroke="#4B5563" stroke-width="2.02778" stroke-linecap="round" stroke-linejoin="round"/>
</svg>
