<svg width="19" height="22" viewBox="0 0 19 22" fill="none" xmlns="http://www.w3.org/2000/svg">
<path d="M14.75 6C14.75 3.24297 12.507 1 9.75 1C6.99297 1 4.75 3.24297 4.75 6H1V17.875C1 19.6009 2.3991 21 4.125 21H15.375C17.1009 21 18.5 19.6009 18.5 17.875V6H14.75ZM9.75 2.875C11.4731 2.875 12.875 4.27688 12.875 6H6.625C6.625 4.27688 8.02688 2.875 9.75 2.875ZM16.625 17.875C16.625 18.5643 16.0643 19.125 15.375 19.125H4.125C3.43574 19.125 2.875 18.5643 2.875 17.875V7.875H4.75V9.4375C4.75 9.95527 5.16973 10.375 5.6875 10.375C6.20527 10.375 6.625 9.95527 6.625 9.4375V7.875H12.875V9.4375C12.875 9.95527 13.2947 10.375 13.8125 10.375C14.3303 10.375 14.75 9.95527 14.75 9.4375V7.875H16.625V17.875Z" fill="#484848" stroke="#484848" stroke-width="0.0390625"/>
</svg>
