<svg width="100" height="23" viewBox="0 0 100 23" fill="none" xmlns="http://www.w3.org/2000/svg">
<g clip-path="url(#clip0_728_2)">
<path d="M0.637939 21.9998V0.939811H2.63994L8.61994 14.9278V0.939811H11.0639V21.9998H9.19194L3.13394 7.62181V21.9998H0.637939ZM18.3002 22.2078C17.1216 22.2078 16.2116 21.9825 15.5702 21.5318C14.9289 21.0638 14.4782 20.3878 14.2182 19.5038C13.9756 18.6025 13.8542 17.5018 13.8542 16.2018V12.7698C13.8542 11.4351 13.9842 10.3258 14.2442 9.44181C14.5042 8.55781 14.9549 7.89048 15.5962 7.43981C16.2549 6.98914 17.1562 6.76381 18.3002 6.76381C19.5656 6.76381 20.4929 7.02381 21.0822 7.54381C21.6889 8.06381 22.0876 8.81781 22.2782 9.80581C22.4689 10.7765 22.5642 11.9465 22.5642 13.3158V14.5378H16.6362V17.5538C16.6362 18.1605 16.6882 18.6545 16.7922 19.0358C16.9136 19.4171 17.0956 19.7031 17.3382 19.8938C17.5982 20.0671 17.9276 20.1538 18.3262 20.1538C18.7422 20.1538 19.0542 20.0585 19.2622 19.8678C19.4876 19.6598 19.6349 19.3738 19.7042 19.0098C19.7909 18.6285 19.8342 18.1865 19.8342 17.6838V16.7738H22.5382V17.3458C22.5382 18.8538 22.2176 20.0411 21.5762 20.9078C20.9349 21.7745 19.8429 22.2078 18.3002 22.2078ZM16.6362 13.0298H19.8342V11.6778C19.8342 11.0538 19.7996 10.5338 19.7302 10.1178C19.6609 9.68448 19.5136 9.36381 19.2882 9.15581C19.0802 8.93048 18.7422 8.81781 18.2742 8.81781C17.8236 8.81781 17.4769 8.92181 17.2342 9.12981C17.0089 9.33781 16.8529 9.69314 16.7662 10.1958C16.6796 10.6811 16.6362 11.3571 16.6362 12.2238V13.0298ZM24.5116 21.9998V20.1278L29.1136 9.05181H24.9796V6.97181H32.1036V8.47981L27.4756 19.8938H31.9996V21.9998H24.5116ZM34.2793 21.9998V6.97181H37.0613V21.9998H34.2793ZM34.2793 4.73581V1.82381H37.0613V4.73581H34.2793ZM43.5227 22.2078C42.2573 22.2078 41.3127 21.7485 40.6887 20.8298C40.0647 19.8938 39.7527 18.3165 39.7527 16.0978V13.1858C39.7527 12.0418 39.848 10.9845 40.0387 10.0138C40.2293 9.02581 40.5847 8.23714 41.1047 7.64781C41.642 7.05848 42.422 6.76381 43.4447 6.76381C43.9473 6.76381 44.4067 6.87648 44.8227 7.10181C45.2387 7.32714 45.6113 7.60448 45.9407 7.93381V0.939811H48.7227V21.9998H45.9407V21.0378C45.6113 21.3845 45.2473 21.6705 44.8487 21.8958C44.4673 22.1038 44.0253 22.2078 43.5227 22.2078ZM44.2247 20.0238C44.4847 20.0238 44.762 19.9805 45.0567 19.8938C45.3513 19.7898 45.646 19.6425 45.9407 19.4518V9.59781C45.698 9.42448 45.4293 9.27714 45.1347 9.15581C44.84 9.01714 44.5193 8.94781 44.1727 8.94781C43.5313 8.94781 43.098 9.25981 42.8727 9.88381C42.6473 10.4905 42.5347 11.2271 42.5347 12.0938V16.3318C42.5347 17.0251 42.5693 17.6578 42.6387 18.2298C42.7253 18.7845 42.89 19.2265 43.1327 19.5558C43.3753 19.8678 43.7393 20.0238 44.2247 20.0238ZM56.7406 22.2338C55.5273 22.2338 54.5133 21.9738 53.6986 21.4538C52.9013 20.9338 52.2946 20.2145 51.8786 19.2958C51.4626 18.3771 51.22 17.3111 51.1506 16.0978L53.7506 15.3958C53.8026 16.1411 53.9153 16.8605 54.0886 17.5538C54.2793 18.2471 54.5826 18.8191 54.9986 19.2698C55.4146 19.7031 55.9953 19.9198 56.7406 19.9198C57.5033 19.9198 58.0753 19.7118 58.4566 19.2958C58.8553 18.8625 59.0546 18.2471 59.0546 17.4498C59.0546 16.4965 58.838 15.7338 58.4046 15.1618C57.9713 14.5725 57.4253 13.9831 56.7666 13.3938L53.2306 10.2738C52.5373 9.66714 52.026 9.00848 51.6966 8.29781C51.3673 7.56981 51.2026 6.67714 51.2026 5.61981C51.2026 4.07714 51.6446 2.88114 52.5286 2.03181C53.4126 1.18248 54.6173 0.757812 56.1426 0.757812C56.9746 0.757812 57.7026 0.870479 58.3266 1.09581C58.968 1.30381 59.4966 1.63314 59.9126 2.08381C60.346 2.53448 60.684 3.10648 60.9266 3.79981C61.1866 4.47581 61.36 5.27314 61.4466 6.19181L58.9506 6.86781C58.8986 6.17448 58.7946 5.54181 58.6386 4.96981C58.4826 4.38048 58.2053 3.91248 57.8066 3.56581C57.4253 3.20181 56.8706 3.01981 56.1426 3.01981C55.4146 3.01981 54.8426 3.21914 54.4266 3.61781C54.028 3.99914 53.8286 4.57114 53.8286 5.33381C53.8286 5.97514 53.9326 6.50381 54.1406 6.91981C54.366 7.33581 54.7213 7.76048 55.2066 8.19381L58.7686 11.3138C59.566 12.0071 60.268 12.8391 60.8746 13.8098C61.4813 14.7631 61.7846 15.8985 61.7846 17.2158C61.7846 18.2558 61.568 19.1571 61.1346 19.9198C60.7013 20.6651 60.1033 21.2371 59.3406 21.6358C58.5953 22.0345 57.7286 22.2338 56.7406 22.2338ZM67.8337 22.2078C67.0537 22.2078 66.421 22.0605 65.9357 21.7658C65.4677 21.4711 65.121 21.0551 64.8957 20.5178C64.6877 19.9805 64.5837 19.3478 64.5837 18.6198V8.81781H62.9977V6.97181H64.5837V2.57781H67.3657V6.97181H69.7837V8.81781H67.3657V18.4378C67.3657 19.0271 67.461 19.4518 67.6517 19.7118C67.8423 19.9545 68.2063 20.0758 68.7437 20.0758C68.8823 20.0758 69.0383 20.0671 69.2117 20.0498C69.4023 20.0325 69.5843 20.0151 69.7577 19.9978V22.0518C69.411 22.1038 69.0903 22.1385 68.7957 22.1558C68.501 22.1905 68.1803 22.2078 67.8337 22.2078ZM75.9617 22.2078C74.8524 22.2078 73.9771 21.9825 73.3357 21.5318C72.6944 21.0811 72.2351 20.4398 71.9577 19.6078C71.6977 18.7758 71.5677 17.7965 71.5677 16.6698V12.3018C71.5677 11.1751 71.6977 10.1958 71.9577 9.36381C72.2351 8.53181 72.6944 7.89048 73.3357 7.43981C73.9771 6.98914 74.8524 6.76381 75.9617 6.76381C77.0711 6.76381 77.9377 6.98914 78.5617 7.43981C79.2031 7.89048 79.6537 8.53181 79.9137 9.36381C80.1911 10.1958 80.3297 11.1751 80.3297 12.3018V16.6698C80.3297 17.7965 80.1911 18.7758 79.9137 19.6078C79.6537 20.4398 79.2031 21.0811 78.5617 21.5318C77.9377 21.9825 77.0711 22.2078 75.9617 22.2078ZM75.9617 20.1538C76.4991 20.1538 76.8717 19.9978 77.0797 19.6858C77.3051 19.3738 77.4351 18.9665 77.4697 18.4638C77.5217 17.9438 77.5477 17.4065 77.5477 16.8518V12.1458C77.5477 11.5738 77.5217 11.0365 77.4697 10.5338C77.4351 10.0311 77.3051 9.62381 77.0797 9.31181C76.8717 8.98248 76.4991 8.81781 75.9617 8.81781C75.4244 8.81781 75.0431 8.98248 74.8177 9.31181C74.5924 9.62381 74.4537 10.0311 74.4017 10.5338C74.3671 11.0365 74.3497 11.5738 74.3497 12.1458V16.8518C74.3497 17.4065 74.3671 17.9438 74.4017 18.4638C74.4537 18.9665 74.5924 19.3738 74.8177 19.6858C75.0431 19.9978 75.4244 20.1538 75.9617 20.1538ZM82.9507 21.9998V6.97181H85.7327V9.10381C86.2873 8.18514 86.842 7.56981 87.3967 7.25781C87.9513 6.94581 88.506 6.78981 89.0607 6.78981C89.13 6.78981 89.1907 6.78981 89.2427 6.78981C89.312 6.78981 89.3987 6.79848 89.5027 6.81581V9.88381C89.2947 9.79714 89.052 9.72781 88.7747 9.67581C88.5147 9.60648 88.246 9.57181 87.9687 9.57181C87.5353 9.57181 87.1367 9.67581 86.7727 9.88381C86.426 10.0745 86.0793 10.4558 85.7327 11.0278V21.9998H82.9507ZM95.31 22.2078C94.1313 22.2078 93.2213 21.9825 92.58 21.5318C91.9387 21.0638 91.488 20.3878 91.228 19.5038C90.9853 18.6025 90.864 17.5018 90.864 16.2018V12.7698C90.864 11.4351 90.994 10.3258 91.254 9.44181C91.514 8.55781 91.9647 7.89048 92.606 7.43981C93.2647 6.98914 94.166 6.76381 95.31 6.76381C96.5753 6.76381 97.5027 7.02381 98.092 7.54381C98.6987 8.06381 99.0973 8.81781 99.288 9.80581C99.4787 10.7765 99.574 11.9465 99.574 13.3158V14.5378H93.646V17.5538C93.646 18.1605 93.698 18.6545 93.802 19.0358C93.9233 19.4171 94.1053 19.7031 94.348 19.8938C94.608 20.0671 94.9373 20.1538 95.336 20.1538C95.752 20.1538 96.064 20.0585 96.272 19.8678C96.4973 19.6598 96.6447 19.3738 96.714 19.0098C96.8007 18.6285 96.844 18.1865 96.844 17.6838V16.7738H99.548V17.3458C99.548 18.8538 99.2273 20.0411 98.586 20.9078C97.9447 21.7745 96.8527 22.2078 95.31 22.2078ZM93.646 13.0298H96.844V11.6778C96.844 11.0538 96.8093 10.5338 96.74 10.1178C96.6707 9.68448 96.5233 9.36381 96.298 9.15581C96.09 8.93048 95.752 8.81781 95.284 8.81781C94.8333 8.81781 94.4867 8.92181 94.244 9.12981C94.0187 9.33781 93.8627 9.69314 93.776 10.1958C93.6893 10.6811 93.646 11.3571 93.646 12.2238V13.0298Z" fill="#6B7280"/>
</g>
<defs>
<clipPath id="clip0_728_2">
<rect width="100" height="23" fill="white"/>
</clipPath>
</defs>
</svg>
