<svg width="19" height="22" viewBox="0 0 19 22" fill="none" xmlns="http://www.w3.org/2000/svg">
<path d="M13.25 12.875C12.1289 12.875 11.5898 13.5 9.75 13.5C7.91016 13.5 7.375 12.875 6.25 12.875C3.35156 12.875 1 15.2266 1 18.125V19.125C1 20.1602 1.83984 21 2.875 21H16.625C17.6602 21 18.5 20.1602 18.5 19.125V18.125C18.5 15.2266 16.1484 12.875 13.25 12.875ZM16.625 19.125H2.875V18.125C2.875 16.2656 4.39062 14.75 6.25 14.75C6.82031 14.75 7.74609 15.375 9.75 15.375C11.7695 15.375 12.6758 14.75 13.25 14.75C15.1094 14.75 16.625 16.2656 16.625 18.125V19.125ZM9.75 12.25C12.8555 12.25 15.375 9.73047 15.375 6.625C15.375 3.51953 12.8555 1 9.75 1C6.64453 1 4.125 3.51953 4.125 6.625C4.125 9.73047 6.64453 12.25 9.75 12.25ZM9.75 2.875C11.8164 2.875 13.5 4.55859 13.5 6.625C13.5 8.69141 11.8164 10.375 9.75 10.375C7.68359 10.375 6 8.69141 6 6.625C6 4.55859 7.68359 2.875 9.75 2.875Z" fill="#484848" stroke="#484848" stroke-width="0.0390625"/>
</svg>
