<svg width="15" height="15" viewBox="0 0 15 15" fill="none" xmlns="http://www.w3.org/2000/svg">
<path d="M9.16961 11.0368C8.33279 11.5379 7.37537 11.8017 6.40001 11.8C5.69072 11.801 4.98824 11.6617 4.33295 11.3903C3.67765 11.1189 3.08247 10.7206 2.58161 10.2184C2.07939 9.71754 1.68112 9.12236 1.4097 8.46706C1.13827 7.81177 0.999038 7.10929 1.00001 6.40001C1.00001 4.90881 1.60401 3.55921 2.58161 2.58161C3.08247 2.07939 3.67765 1.68112 4.33295 1.4097C4.98824 1.13827 5.69072 0.999038 6.40001 1.00001C7.89121 1.00001 9.24081 1.60401 10.2184 2.58161C10.7206 3.08247 11.1189 3.67765 11.3903 4.33295C11.6617 4.98824 11.801 5.69072 11.8 6.40001C11.8014 7.35793 11.547 8.29885 11.0632 9.12561C10.6496 9.83121 10.716 10.716 11.2944 11.2944L14.3768 14.3768" stroke="#111111" stroke-width="1.2"/>
</svg>
